<svg xmlns="http://www.w3.org/2000/svg" width="104" height="37" fill="none" aria-label="logo"><path fill="#fff" fill-rule="evenodd" d="M18.199 7.389c-6.03 0-10.886 4.944-10.886 11.083 0 6.138 4.857 11.083 10.886 11.083s10.885-4.945 10.885-11.083c0-6.082-4.856-11.083-10.885-11.083m0 19.892c-4.745 0-8.597-3.922-8.597-8.753s3.852-8.752 8.597-8.752 8.596 3.921 8.596 8.752-3.851 8.753-8.596 8.753" clip-rule="evenodd"></path><path fill="#fff" fill-rule="evenodd" d="M18.199 12.333c-3.183 0-6.03 2.899-6.03 6.195 0 3.24 2.848 6.196 6.03 6.196 3.181 0 6.028-2.9 6.028-6.196s-2.847-6.195-6.029-6.195m0 9.947c-2.01 0-3.685-1.649-3.685-3.752 0-2.046 1.619-3.75 3.685-3.75 2.01 0 3.684 1.647 3.684 3.75 0 2.047-1.675 3.752-3.684 3.752" clip-rule="evenodd"></path><path fill="#fff" fill-rule="evenodd" d="M0 0v37h36.342V0zm33.941 17.392c-.558-7.957-6.755-14.323-14.514-14.948H33.94zm-2.289 1.136c0 7.56-6.029 13.698-13.453 13.698-7.425 0-13.454-6.139-13.454-13.698s6.03-13.697 13.454-13.697c7.424-.057 13.453 6.081 13.453 13.697M16.97 2.444C8.82 3.069 2.4 10.004 2.4 18.472V2.444zM2.4 18.528c0 8.526 6.532 15.46 14.794 16.028H2.4zm16.803 16.028c7.872-.511 14.18-6.934 14.738-14.948v14.948zM63.75 7.9c.782.91 1.173 2.046 1.173 3.24 0 1.534-.67 3.012-1.842 3.921-.893.74-2.01 1.08-3.238 1.08-2.903 0-5.024-2.16-5.024-5.058 0-1.478.726-2.899 1.842-3.808.837-.682 2.01-1.08 3.238-1.08 1.563-.057 2.903.568 3.852 1.705m-6.475 3.24c0 1.477 1.117 2.671 2.568 2.671s2.568-1.194 2.568-2.614c0-1.421-1.172-2.615-2.568-2.615-1.396-.057-2.568 1.137-2.568 2.558M79.382 8.866c-.559-.454-1.005-.625-1.563-.625-.559 0-1.005.341-1.005.796 0 .284.223.511.614.739.112.057.223.057 1.06.34 1.62.456 2.234 1.251 2.234 2.615 0 1.307-.391 2.16-1.284 2.728-.615.398-1.396.625-2.29.625a5.14 5.14 0 0 1-3.181-1.08l1.005-1.989c.725.682 1.395.966 2.121.966s1.172-.34 1.172-.909c0-.511-.335-.739-1.451-1.08-1.06-.284-1.452-.511-1.787-.795-.446-.398-.67-1.023-.67-1.82 0-1.875 1.284-3.182 3.127-3.182.949 0 2.01.284 2.903.739zM48.567 15.8h-2.4V6.422h3.796c1.06 0 1.73.228 2.288.796.614.568.894 1.307.894 2.33 0 .91-.28 1.706-.726 2.274q-.754.852-2.345.852h-1.507zm.781-5.058c.894 0 1.34-.341 1.34-1.137s-.446-1.193-1.284-1.193h-.781v2.33zM69.333 13.754h2.903V15.8H66.99V6.48h2.344zM88.37 6.48h2.902l-3.628 4.432 4.02 4.888h-3.127l-3.07-4.035V15.8h-2.4V6.48h2.4v3.864z" clip-rule="evenodd"></path><path fill="#fff" d="M95.794 6.48h-2.4v9.377h2.4z"></path><path fill="#fff" fill-rule="evenodd" d="M101.097 8.525v1.592h2.68v2.046h-2.68v1.591h2.847V15.8h-5.247V6.48h5.247v2.045zM53.814 30.52h-2.958l-2.289-3.58v3.58h-2.4v-9.377h3.684c1.06 0 1.73.227 2.233.852.502.512.781 1.308.781 2.047 0 .852-.334 1.648-.893 2.102-.279.228-.614.398-1.116.512zm-4.8-5.114c.446 0 .781-.057 1.004-.228.28-.17.447-.568.447-.91 0-.34-.167-.738-.447-.909-.223-.17-.558-.227-1.004-.227h-.447v2.33h.447zM61.63 28.93l-.614 1.648h-2.512L62.02 21.2h2.623l3.462 9.378h-2.568l-.614-1.649zm1.675-4.832L62.3 27.111h2.01zM73.13 21.2h3.516c2.4 0 4.522 2.16 4.522 4.66s-2.065 4.66-4.522 4.66H73.13zm2.902 7.275c.893 0 1.452-.228 1.954-.796.447-.455.67-1.137.67-1.819s-.223-1.364-.67-1.818c-.502-.569-1.06-.796-1.954-.796h-.558v5.229z" clip-rule="evenodd"></path><path fill="#fff" d="M88.872 21.2h-2.4v9.378h2.4z"></path><path fill="#fff" fill-rule="evenodd" d="M102.828 22.62c.781.91 1.172 2.047 1.172 3.24 0 1.535-.67 3.012-1.842 3.922-.893.739-2.01 1.08-3.238 1.08-2.903 0-5.024-2.16-5.024-5.059 0-1.477.726-2.898 1.842-3.808.838-.682 2.01-1.08 3.238-1.08 1.563 0 2.903.569 3.852 1.706m-6.476 3.24c0 1.478 1.117 2.672 2.568 2.672s2.568-1.194 2.568-2.615c0-1.42-1.172-2.614-2.568-2.614-1.395-.057-2.568 1.136-2.568 2.557" clip-rule="evenodd"></path></svg>